<svg width="23" height="23" viewBox="0 0 23 23" fill="none" xmlns="http://www.w3.org/2000/svg">
<path d="M17.7164 10.5522H12.3433V5.17909C12.3433 4.94158 12.2489 4.7138 12.081 4.54586C11.913 4.37792 11.6853 4.28357 11.4477 4.28357C11.2102 4.28357 10.9825 4.37792 10.8145 4.54586C10.6466 4.7138 10.5522 4.94158 10.5522 5.17909V10.5522H5.17909C4.94158 10.5522 4.7138 10.6466 4.54586 10.8145C4.37792 10.9825 4.28357 11.2102 4.28357 11.4477C4.28357 11.6853 4.37792 11.913 4.54586 12.081C4.7138 12.2489 4.94158 12.3433 5.17909 12.3433H10.5522V17.7164C10.5522 17.9539 10.6466 18.1817 10.8145 18.3496C10.9825 18.5176 11.2102 18.6119 11.4477 18.6119C11.6853 18.6119 11.913 18.5176 12.081 18.3496C12.2489 18.1817 12.3433 17.9539 12.3433 17.7164V12.3433H17.7164C17.9539 12.3433 18.1817 12.2489 18.3496 12.081C18.5176 11.913 18.6119 11.6853 18.6119 11.4477C18.6119 11.2102 18.5176 10.9825 18.3496 10.8145C18.1817 10.6466 17.9539 10.5522 17.7164 10.5522Z" fill="black"/>
</svg>
